<svg width="1600" height="520" viewBox="0 0 1600 520" fill="none" xmlns="http://www.w3.org/2000/svg" role="img" aria-labelledby="title desc">
  <title id="title">traceframe</title>
  <desc id="desc">Inspectable traces for AI agent workflows</desc>
  <rect width="1600" height="520" fill="#0d1117"/>
  <rect x="64" y="64" width="1472" height="392" rx="28" fill="#111827" stroke="#334155" stroke-width="2"/>
  <path d="M180 166H1420" stroke="#263244" stroke-width="2"/>
  <path d="M180 260H1420" stroke="#263244" stroke-width="2"/>
  <path d="M180 354H1420" stroke="#263244" stroke-width="2"/>
  <circle cx="246" cy="166" r="16" fill="#60a5fa"/>
  <circle cx="442" cy="260" r="16" fill="#34d399"/>
  <circle cx="704" cy="354" r="16" fill="#f97316"/>
  <circle cx="1016" cy="260" r="16" fill="#f43f5e"/>
  <circle cx="1260" cy="166" r="16" fill="#a78bfa"/>
  <path d="M262 166C318 166 368 218 426 252" stroke="#60a5fa" stroke-width="6" stroke-linecap="round"/>
  <path d="M458 264C540 304 608 338 688 352" stroke="#34d399" stroke-width="6" stroke-linecap="round"/>
  <path d="M720 352C826 336 916 286 1000 262" stroke="#f97316" stroke-width="6" stroke-linecap="round"/>
  <path d="M1032 258C1110 232 1184 184 1244 168" stroke="#f43f5e" stroke-width="6" stroke-linecap="round"/>
  <text x="180" y="132" fill="#e5edf7" font-family="ui-sans-serif, system-ui, -apple-system, BlinkMacSystemFont, 'Segoe UI', sans-serif" font-size="72" font-weight="700">traceframe</text>
  <text x="184" y="426" fill="#93a4b8" font-family="ui-monospace, SFMono-Regular, Menlo, Monaco, Consolas, monospace" font-size="34">local-first JSONL traces for AI agent workflows</text>
  <text x="900" y="132" fill="#93a4b8" font-family="ui-monospace, SFMono-Regular, Menlo, Monaco, Consolas, monospace" font-size="26">run -> tool -> decision -> result</text>
</svg>
